REM DIRINDEX 1\2\4,1\2\5,1\3\6,1\3\7
REM DIRNAME cjc099,folder01,folder02,folder03,folder04,folder05,folder06
TITLE ""
FILE "bunpo2_01.mp3" MP3
  TRACK 01 AUDIO
    TITLE "7:cjc099_001"
    INDEX 01 00:00:00
  TRACK 02 AUDIO
    TITLE "0:"
    INDEX 01 00:01:44
  TRACK 03 AUDIO
    TITLE "7:cjc099_002"
    INDEX 01 00:02:20
  TRACK 04 AUDIO
    TITLE "0:"
    INDEX 01 00:03:43
  TRACK 05 AUDIO
    TITLE "6:cjc099_003"
    INDEX 01 00:03:51
  TRACK 06 AUDIO
    TITLE "0:"
    INDEX 01 00:10:43
  TRACK 07 AUDIO
    TITLE "5:cjc099_004"
    INDEX 01 00:11:25
  TRACK 08 AUDIO
    TITLE "0:"
    INDEX 01 00:12:44
  TRACK 09 AUDIO
    TITLE "4:cjc099_005"
    INDEX 01 00:12:63
  TRACK 10 AUDIO
    TITLE "0:"
    INDEX 01 00:19:46
  TRACK 11 AUDIO
    TITLE "7:cjc099_006"
    INDEX 01 00:21:19
  TRACK 12 AUDIO
    TITLE "0:"
    INDEX 01 00:22:42
  TRACK 13 AUDIO
    TITLE "6:cjc099_007"
    INDEX 01 00:22:44
  TRACK 14 AUDIO
    TITLE "0:"
    INDEX 01 00:30:65
  TRACK 15 AUDIO
    TITLE "5:cjc099_008"
    INDEX 01 00:31:41
  TRACK 16 AUDIO
    TITLE "0:"
    INDEX 01 00:32:56
  TRACK 17 AUDIO
    TITLE "4:cjc099_009"
    INDEX 01 00:32:62
  TRACK 18 AUDIO
    TITLE "0:"
    INDEX 01 00:41:28
  TRACK 19 AUDIO
    TITLE "7:cjc099_010"
    INDEX 01 00:43:03
  TRACK 20 AUDIO
    TITLE "0:"
    INDEX 01 00:44:26
  TRACK 21 AUDIO
    TITLE "6:cjc099_011"
    INDEX 01 00:44:44
  TRACK 22 AUDIO
    TITLE "0:"
    INDEX 01 00:53:08
  TRACK 23 AUDIO
    TITLE "5:cjc099_012"
    INDEX 01 00:53:55
  TRACK 24 AUDIO
    TITLE "0:"
    INDEX 01 00:55:01
  TRACK 25 AUDIO
    TITLE "4:cjc099_013"
    INDEX 01 00:55:28
  TRACK 26 AUDIO
    TITLE "0:"
    INDEX 01 01:03:43
  TRACK 27 AUDIO
    TITLE "7:cjc099_014"
    INDEX 01 01:05:24
  TRACK 28 AUDIO
    TITLE "0:"
    INDEX 01 01:06:43
  TRACK 29 AUDIO
    TITLE "6:cjc099_015"
    INDEX 01 01:06:47
  TRACK 30 AUDIO
    TITLE "0:"
    INDEX 01 01:13:08
  TRACK 31 AUDIO
    TITLE "5:cjc099_016"
    INDEX 01 01:13:57
  TRACK 32 AUDIO
    TITLE "0:"
    INDEX 01 01:15:05
  TRACK 33 AUDIO
    TITLE "4:cjc099_017"
    INDEX 01 01:15:07
  TRACK 34 AUDIO
    TITLE "0:"
    INDEX 01 01:21:27
  TRACK 35 AUDIO
    TITLE "7:cjc099_018"
    INDEX 01 01:23:16
  TRACK 36 AUDIO
    TITLE "0:"
    INDEX 01 01:24:28
  TRACK 37 AUDIO
    TITLE "6:cjc099_019"
    INDEX 01 01:24:41
  TRACK 38 AUDIO
    TITLE "0:"
    INDEX 01 01:30:17
  TRACK 39 AUDIO
    TITLE "5:cjc099_020"
    INDEX 01 01:30:71
  TRACK 40 AUDIO
    TITLE "0:"
    INDEX 01 01:32:17
  TRACK 41 AUDIO
    TITLE "4:cjc099_021"
    INDEX 01 01:32:27
  TRACK 42 AUDIO
    TITLE "0:"
    INDEX 01 01:38:32
  TRACK 43 AUDIO
    TITLE "7:cjc099_022"
    INDEX 01 01:40:07
  TRACK 44 AUDIO
    TITLE "0:"
    INDEX 01 01:41:28
  TRACK 45 AUDIO
    TITLE "6:cjc099_023"
    INDEX 01 01:41:42
  TRACK 46 AUDIO
    TITLE "0:"
    INDEX 01 01:46:65
  TRACK 47 AUDIO
    TITLE "5:cjc099_024"
    INDEX 01 01:47:40
  TRACK 48 AUDIO
    TITLE "0:"
    INDEX 01 01:48:67
  TRACK 49 AUDIO
    TITLE "4:cjc099_025"
    INDEX 01 01:48:71
  TRACK 50 AUDIO
    TITLE "0:"
    INDEX 01 01:54:37
  TRACK 51 AUDIO
    TITLE "7:cjc099_026"
    INDEX 01 01:56:10
  TRACK 52 AUDIO
    TITLE "0:"
    INDEX 01 01:57:25
  TRACK 53 AUDIO
    TITLE "6:cjc099_027"
    INDEX 01 01:57:53
  TRACK 54 AUDIO
    TITLE "0:"
    INDEX 01 02:04:10
  TRACK 55 AUDIO
    TITLE "5:cjc099_028"
    INDEX 01 02:04:66
  TRACK 56 AUDIO
    TITLE "0:"
    INDEX 01 02:06:10
  TRACK 57 AUDIO
    TITLE "4:cjc099_029"
    INDEX 01 02:06:32
  TRACK 58 AUDIO
    TITLE "0:"
    INDEX 01 02:12:64
  TRACK 59 AUDIO
    TITLE "7:cjc099_030"
    INDEX 01 02:14:43
  TRACK 60 AUDIO
    TITLE "0:"
    INDEX 01 02:15:58
  TRACK 61 AUDIO
    TITLE "6:cjc099_031"
    INDEX 01 02:15:60
  TRACK 62 AUDIO
    TITLE "0:"
    INDEX 01 02:21:71
  TRACK 63 AUDIO
    TITLE "5:cjc099_032"
    INDEX 01 02:22:45
  TRACK 64 AUDIO
    TITLE "0:"
    INDEX 01 02:23:52
  TRACK 65 AUDIO
    TITLE "4:cjc099_033"
    INDEX 01 02:23:62
  TRACK 66 AUDIO
    TITLE "0:"
    INDEX 01 02:29:57
  TRACK 67 AUDIO
    TITLE "7:cjc099_034"
    INDEX 01 02:31:28
  TRACK 68 AUDIO
    TITLE "0:"
    INDEX 01 02:32:39
  TRACK 69 AUDIO
    TITLE "6:cjc099_035"
    INDEX 01 02:32:41
  TRACK 70 AUDIO
    TITLE "0:"
    INDEX 01 02:38:28
  TRACK 71 AUDIO
    TITLE "5:cjc099_036"
    INDEX 01 02:39:00
  TRACK 72 AUDIO
    TITLE "0:"
    INDEX 01 02:40:17
  TRACK 73 AUDIO
    TITLE "4:cjc099_037"
    INDEX 01 02:40:19
  TRACK 74 AUDIO
    TITLE "0:"
    INDEX 01 02:46:14
  TRACK 75 AUDIO
    TITLE "7:cjc099_038"
    INDEX 01 02:47:64
  TRACK 76 AUDIO
    TITLE "0:"
    INDEX 01 02:49:10
  TRACK 77 AUDIO
    TITLE "6:cjc099_039"
    INDEX 01 02:49:14
  TRACK 78 AUDIO
    TITLE "0:"
    INDEX 01 02:57:29
  TRACK 79 AUDIO
    TITLE "5:cjc099_040"
    INDEX 01 02:57:70
  TRACK 80 AUDIO
    TITLE "0:"
    INDEX 01 02:59:16
  TRACK 81 AUDIO
    TITLE "4:cjc099_041"
    INDEX 01 02:59:34
  TRACK 82 AUDIO
    TITLE "0:"
    INDEX 01 03:07:22
  TRACK 83 AUDIO
    TITLE "7:cjc099_042"
    INDEX 01 03:09:03
  TRACK 84 AUDIO
    TITLE "0:"
    INDEX 01 03:10:28
  TRACK 85 AUDIO
    TITLE "6:cjc099_043"
    INDEX 01 03:10:30
  TRACK 86 AUDIO
    TITLE "0:"
    INDEX 01 03:16:58
  TRACK 87 AUDIO
    TITLE "5:cjc099_044"
    INDEX 01 03:17:32
  TRACK 88 AUDIO
    TITLE "0:"
    INDEX 01 03:18:55
  TRACK 89 AUDIO
    TITLE "4:cjc099_045"
    INDEX 01 03:18:73
  TRACK 90 AUDIO
    TITLE "0:"
    INDEX 01 03:24:61
  TRACK 91 AUDIO
    TITLE "7:cjc099_046"
    INDEX 01 03:26:41
  TRACK 92 AUDIO
    TITLE "0:"
    INDEX 01 03:27:72
  TRACK 93 AUDIO
    TITLE "6:cjc099_047"
    INDEX 01 03:28:02
  TRACK 94 AUDIO
    TITLE "0:"
    INDEX 01 03:33:70
  TRACK 95 AUDIO
    TITLE "5:cjc099_048"
    INDEX 01 03:34:44
  TRACK 96 AUDIO
    TITLE "0:"
    INDEX 01 03:35:73
  TRACK 97 AUDIO
    TITLE "4:cjc099_049"
    INDEX 01 03:36:20
  TRACK 98 AUDIO
    TITLE "0:"
    INDEX 01 03:42:08
  TRACK 99 AUDIO
    TITLE "7:cjc099_050"
    INDEX 01 03:43:59
  TRACK 100 AUDIO
    TITLE "0:"
    INDEX 01 03:45:22
  TRACK 101 AUDIO
    TITLE "6:cjc099_051"
    INDEX 01 03:45:30
  TRACK 102 AUDIO
    TITLE "0:"
    INDEX 01 03:51:70
  TRACK 103 AUDIO
    TITLE "5:cjc099_052"
    INDEX 01 03:52:46
  TRACK 104 AUDIO
    TITLE "0:"
    INDEX 01 03:54:10
  TRACK 105 AUDIO
    TITLE "4:cjc099_053"
    INDEX 01 03:54:16
  TRACK 106 AUDIO
    TITLE "0:"
    INDEX 01 04:00:20
  TRACK 107 AUDIO
    TITLE "7:cjc099_054"
    INDEX 01 04:01:70
  TRACK 108 AUDIO
    TITLE "0:"
    INDEX 01 04:03:34
  TRACK 109 AUDIO
    TITLE "6:cjc099_055"
    INDEX 01 04:03:52
  TRACK 110 AUDIO
    TITLE "0:"
    INDEX 01 04:10:28
  TRACK 111 AUDIO
    TITLE "5:cjc099_056"
    INDEX 01 04:11:00
  TRACK 112 AUDIO
    TITLE "0:"
    INDEX 01 04:12:41
  TRACK 113 AUDIO
    TITLE "4:cjc099_057"
    INDEX 01 04:12:43
  TRACK 114 AUDIO
    TITLE "0:"
    INDEX 01 04:18:67
  TRACK 115 AUDIO
    TITLE "7:cjc099_058"
    INDEX 01 04:20:40
  TRACK 116 AUDIO
    TITLE "0:"
    INDEX 01 04:22:04
  TRACK 117 AUDIO
    TITLE "6:cjc099_059"
    INDEX 01 04:22:10
  TRACK 118 AUDIO
    TITLE "0:"
    INDEX 01 04:28:01
  TRACK 119 AUDIO
    TITLE "5:cjc099_060"
    INDEX 01 04:28:54
  TRACK 120 AUDIO
    TITLE "0:"
    INDEX 01 04:30:15
  TRACK 121 AUDIO
    TITLE "4:cjc099_061"
    INDEX 01 04:30:17
  TRACK 122 AUDIO
    TITLE "0:"
    INDEX 01 04:36:32
  TRACK 123 AUDIO
    TITLE "7:cjc099_062"
    INDEX 01 04:38:01
  TRACK 124 AUDIO
    TITLE "0:"
    INDEX 01 04:39:38
  TRACK 125 AUDIO
    TITLE "6:cjc099_063"
    INDEX 01 04:39:40
  TRACK 126 AUDIO
    TITLE "0:"
    INDEX 01 04:48:74
  TRACK 127 AUDIO
    TITLE "5:cjc099_064"
    INDEX 01 04:49:50
  TRACK 128 AUDIO
    TITLE "0:"
    INDEX 01 04:51:14
  TRACK 129 AUDIO
    TITLE "4:cjc099_065"
    INDEX 01 04:51:23
  TRACK 130 AUDIO
    TITLE "0:"
    INDEX 01 05:00:50
  TRACK 131 AUDIO
    TITLE "7:cjc099_066"
    INDEX 01 05:02:29
  TRACK 132 AUDIO
    TITLE "0:"
    INDEX 01 05:03:72
  TRACK 133 AUDIO
    TITLE "6:cjc099_067"
    INDEX 01 05:03:74
  TRACK 134 AUDIO
    TITLE "0:"
    INDEX 01 05:09:47
  TRACK 135 AUDIO
    TITLE "5:cjc099_068"
    INDEX 01 05:10:27
  TRACK 136 AUDIO
    TITLE "0:"
    INDEX 01 05:11:65
  TRACK 137 AUDIO
    TITLE "4:cjc099_069"
    INDEX 01 05:11:67
  TRACK 138 AUDIO
    TITLE "0:"
    INDEX 01 05:17:40
  TRACK 139 AUDIO
    TITLE "7:cjc099_070"
    INDEX 01 05:19:16
  TRACK 140 AUDIO
    TITLE "0:"
    INDEX 01 05:20:50
  TRACK 141 AUDIO
    TITLE "6:cjc099_071"
    INDEX 01 05:20:58
  TRACK 142 AUDIO
    TITLE "0:"
    INDEX 01 05:25:61
  TRACK 143 AUDIO
    TITLE "5:cjc099_072"
    INDEX 01 05:26:33
  TRACK 144 AUDIO
    TITLE "0:"
    INDEX 01 05:27:72
  TRACK 145 AUDIO
    TITLE "4:cjc099_073"
    INDEX 01 05:27:74
  TRACK 146 AUDIO
    TITLE "0:"
    INDEX 01 05:32:71
  TRACK 147 AUDIO
    TITLE "7:cjc099_074"
    INDEX 01 05:34:45
  TRACK 148 AUDIO
    TITLE "0:"
    INDEX 01 05:35:74
  TRACK 149 AUDIO
    TITLE "6:cjc099_075"
    INDEX 01 05:36:08
  TRACK 150 AUDIO
    TITLE "0:"
    INDEX 01 05:44:74
  TRACK 151 AUDIO
    TITLE "5:cjc099_076"
    INDEX 01 05:45:43
  TRACK 152 AUDIO
    TITLE "0:"
    INDEX 01 05:47:10
  TRACK 153 AUDIO
    TITLE "4:cjc099_077"
    INDEX 01 05:47:16
  TRACK 154 AUDIO
    TITLE "0:"
    INDEX 01 05:55:57
  TRACK 155 AUDIO
    TITLE "7:cjc099_078"
    INDEX 01 05:57:32
  TRACK 156 AUDIO
    TITLE "0:"
    INDEX 01 05:58:55
  TRACK 157 AUDIO
    TITLE "6:cjc099_079"
    INDEX 01 05:58:71
  TRACK 158 AUDIO
    TITLE "0:"
    INDEX 01 06:06:70
  TRACK 159 AUDIO
    TITLE "5:cjc099_080"
    INDEX 01 06:07:46
  TRACK 160 AUDIO
    TITLE "0:"
    INDEX 01 06:09:04
  TRACK 161 AUDIO
    TITLE "4:cjc099_081"
    INDEX 01 06:09:08
  TRACK 162 AUDIO
    TITLE "0:"
    INDEX 01 06:17:07
  TRACK 163 AUDIO
    TITLE "7:cjc099_082"
    INDEX 01 06:18:60
  TRACK 164 AUDIO
    TITLE "0:"
    INDEX 01 06:20:25
  TRACK 165 AUDIO
    TITLE "6:cjc099_083"
    INDEX 01 06:20:41
  TRACK 166 AUDIO
    TITLE "0:"
    INDEX 01 06:26:16
  TRACK 167 AUDIO
    TITLE "5:cjc099_084"
    INDEX 01 06:26:65
  TRACK 168 AUDIO
    TITLE "0:"
    INDEX 01 06:28:25
  TRACK 169 AUDIO
    TITLE "4:cjc099_085"
    INDEX 01 06:28:27
  TRACK 170 AUDIO
    TITLE "0:"
    INDEX 01 06:34:41
  TRACK 171 AUDIO
    TITLE "7:cjc099_086"
    INDEX 01 06:36:14
  TRACK 172 AUDIO
    TITLE "0:"
    INDEX 01 06:37:55
  TRACK 173 AUDIO
    TITLE "6:cjc099_087"
    INDEX 01 06:37:57
  TRACK 174 AUDIO
    TITLE "0:"
    INDEX 01 06:43:71
  TRACK 175 AUDIO
    TITLE "5:cjc099_088"
    INDEX 01 06:44:43
  TRACK 176 AUDIO
    TITLE "0:"
    INDEX 01 06:46:17
  TRACK 177 AUDIO
    TITLE "4:cjc099_089"
    INDEX 01 06:46:23
  TRACK 178 AUDIO
    TITLE "0:"
    INDEX 01 06:52:17
  TRACK 179 AUDIO
    TITLE "7:cjc099_090"
    INDEX 01 06:53:70
  TRACK 180 AUDIO
    TITLE "0:"
    INDEX 01 06:55:35
  TRACK 181 AUDIO
    TITLE "6:cjc099_091"
    INDEX 01 06:55:53
  TRACK 182 AUDIO
    TITLE "0:"
    INDEX 01 07:01:22
  TRACK 183 AUDIO
    TITLE "5:cjc099_092"
    INDEX 01 07:02:04
  TRACK 184 AUDIO
    TITLE "0:"
    INDEX 01 07:03:51
  TRACK 185 AUDIO
    TITLE "4:cjc099_093"
    INDEX 01 07:03:56
  TRACK 186 AUDIO
    TITLE "0:"
    INDEX 01 07:09:30
  TRACK 187 AUDIO
    TITLE "7:cjc099_094"
    INDEX 01 07:11:03
  TRACK 188 AUDIO
    TITLE "0:"
    INDEX 01 07:12:48
  TRACK 189 AUDIO
    TITLE "6:cjc099_095"
    INDEX 01 07:12:61
  TRACK 190 AUDIO
    TITLE "0:"
    INDEX 01 07:19:22
  TRACK 191 AUDIO
    TITLE "5:cjc099_096"
    INDEX 01 07:19:73
  TRACK 192 AUDIO
    TITLE "0:"
    INDEX 01 07:21:39
  TRACK 193 AUDIO
    TITLE "4:cjc099_097"
    INDEX 01 07:21:46
  TRACK 194 AUDIO
    TITLE "0:"
    INDEX 01 07:27:55
  TRACK 195 AUDIO
    TITLE "7:cjc099_098"
    INDEX 01 07:29:36
  TRACK 196 AUDIO
    TITLE "0:"
    INDEX 01 07:30:67
  TRACK 197 AUDIO
    TITLE "6:cjc099_099"
    INDEX 01 07:31:06
  TRACK 198 AUDIO
    TITLE "0:"
    INDEX 01 07:37:49
  TRACK 199 AUDIO
    TITLE "5:cjc099_100"
    INDEX 01 07:38:35
  TRACK 200 AUDIO
    TITLE "0:"
    INDEX 01 07:39:72
  TRACK 201 AUDIO
    TITLE "4:cjc099_101"
    INDEX 01 07:40:05
  TRACK 202 AUDIO
    TITLE "0:"
    INDEX 01 07:45:74
  TRACK 203 AUDIO
    TITLE "7:cjc099_102"
    INDEX 01 07:47:44
  TRACK 204 AUDIO
    TITLE "0:"
    INDEX 01 07:49:17
  TRACK 205 AUDIO
    TITLE "6:cjc099_103"
    INDEX 01 07:49:21
  TRACK 206 AUDIO
    TITLE "0:"
    INDEX 01 07:55:61
  TRACK 207 AUDIO
    TITLE "5:cjc099_104"
    INDEX 01 07:56:49
  TRACK 208 AUDIO
    TITLE "0:"
    INDEX 01 07:58:16
  TRACK 209 AUDIO
    TITLE "4:cjc099_105"
    INDEX 01 07:58:20
  TRACK 210 AUDIO
    TITLE "0:"
    INDEX 01 08:05:10
